<?xml version="1.0" encoding="utf-8"?>
<!-- Generator: Adobe Illustrator 24.0.0, SVG Export Plug-In . SVG Version: 6.00 Build 0)  -->
<svg version="1.1" id="katman_1" xmlns="http://www.w3.org/2000/svg" xmlns:xlink="http://www.w3.org/1999/xlink" x="0px" y="0px"
	 viewBox="0 0 595.3 841.9" enable-background="new 0 0 595.3 841.9" xml:space="preserve">
<path fill-rule="evenodd" clip-rule="evenodd" d="M365.5,82.4c0,9.8,0,19.7,0,29.5c0,15.6,0.7,15.2-12.8,7.4l-18.2-10.5V85.6
	l18.2-10.5C366.2,67.3,365.5,66.9,365.5,82.4 M273.8,79.3l15.5,8.9l15.5,8.9l-15.5,8.9l-15.5,8.9V97.2V79.3z M250,66.2h72
	c4.3,0,7.7,3.5,7.7,7.7v46.5c0,4.3-3.5,7.7-7.7,7.7h-72c-4.3,0-7.7-3.5-7.7-7.7V74C242.3,69.7,245.8,66.2,250,66.2z"/>
<polygon points="261.9,297.9 261.9,389.3 333.4,343.6 "/>
<path fill="#010101" d="M286,167.1c-21.8,0-39.4,17.7-39.4,39.4s17.7,39.4,39.4,39.4c21.8,0,39.4-17.7,39.4-39.4
	S307.8,167.1,286,167.1z M275.9,223v-33.1l25.9,16.5L275.9,223z"/>
</svg>
